<?xml version="1.0" encoding="utf-8"?>
<!-- Generator: Adobe Illustrator 23.0.1, SVG Export Plug-In . SVG Version: 6.00 Build 0)  -->
<svg version="1.1" id="Layer_1" xmlns="http://www.w3.org/2000/svg" xmlns:xlink="http://www.w3.org/1999/xlink" x="0px" y="0px"
	 viewBox="0 0 300 300" style="enable-background:new 0 0 300 300;" xml:space="preserve">
<style type="text/css">
	.st0{fill:#568B8F;}
	.st1{fill:#FFFFFF;}
	.st2{fill-rule:evenodd;clip-rule:evenodd;fill:#C9262C;}
</style>
<rect class="st0" width="300" height="300"/>
<path class="st1" d="M258.83,149.31l4.26,7.19c0.71,1.21,1.27,2.07,1.68,2.61c0.11,0.14,0.2,0.27,0.28,0.38
	c0.17,0.12,0.37,0.17,0.6,0.21c0.48,0.09,1.24,0.18,2.37,0.18h5.02v25.98H24.71l0-26.86l6.72-0.4c1.81,0,3.28-0.22,4.19-0.5
	c0.36-0.09,0.81-0.31,1.22-0.64c0.16-1.03,0.5-3.79,0.5-8.06v-12.52c0-4.33-0.14-6.71-0.24-7.62c-0.5-0.48-1.14-1-1.61-1.21
	c-0.99-0.23-2.43-0.37-4.05-0.37l-6.72-0.39v-26.67h60.16c3.89,0,6.64,0.13,8.23,0.37c1.98,0.29,4.14,1.04,6.25,2
	c2.56,1.37,5.11,3.74,7.55,6.48c2.73,3.18,4.76,7.95,4.76,12.79v5.61c0,0,0.66-6.57,6.37-6.57h6.39c-0.93-2.31-1.39-4.88-1.39-7.58
	c0-4.76,1.42-8.95,4.04-12.21c2.71-3.37,6.08-4.83,9.65-4.83c3.61,0,7.02,1.42,9.81,4.72c2.82,3.34,4.21,7.72,4.21,12.43
	c0,4.55,0,20.22,0,20.22c1.49-3.37,3.77-6.22,6.42-8.51c4.95-4.27,11.21-6.16,18.37-6.16c1,0,24.3,0,24.3,0v-18.57h37.7v20.51h32.63
	v25.98h-6.09C262.09,147.31,260.35,148,258.83,149.31"/>
<path class="st2" d="M137.06,123.98c-2.56,0-4.71-0.97-6.44-2.91c-1.73-1.94-2.56-4.43-2.56-7.34c0-2.91,0.83-5.4,2.48-7.45
	s3.71-3.02,6.19-3.02c2.56,0,4.71,0.97,6.44,3.02c1.73,2.05,2.56,4.64,2.56,7.56c0,2.91-0.83,5.29-2.48,7.23
	C141.6,123.01,139.54,123.98,137.06,123.98 M146.06,127.87l0.05,51.41l-27.54-0.02v-12.85l2.23-0.11c3.3,0,5.45-0.65,6.36-1.94
	c0.91-1.3,1.4-4.1,1.4-8.53v-4.53c0-4.32-0.49-7.13-1.4-8.53c-0.99-1.3-3.14-1.94-6.36-1.94l-2.31-0.11v-12.85H146.06z"/>
<path class="st2" d="M202.36,127.79v16.3h-8.92c-1.24-2.91-3.14-5.29-5.69-7.02c-2.64-1.73-5.61-2.59-8.92-2.59
	c-2.39,0-4.29,0.43-5.86,1.4c-1.57,0.97-2.31,2.16-2.31,3.56c0,0.97,0.41,1.73,1.32,2.27c0.83,0.54,2.72,1.08,5.61,1.83l9.74,2.38
	c2.81,0.76,4.95,1.4,6.36,2.05c1.4,0.65,3.14,1.94,5.37,3.99c2.23,2.05,3.3,5.72,3.3,10.8c0,5.83-1.98,10.36-6.03,13.71
	c-4.04,3.35-9.57,4.97-16.67,4.97c-3.14,0-6.03-0.22-8.67-0.76l-5.28-1.08c-1.41-0.22-3.96-0.32-7.6-0.32l-5.38,0.11v-15.98h9.34
	c1.07,2.37,2.15,4.1,3.22,5.18c0.99,1.19,2.31,2.05,3.96,2.81c1.65,0.76,3.22,1.4,4.62,1.73c1.41,0.32,2.73,0.54,3.96,0.54
	c1.98,0,3.63-0.43,4.87-1.4c1.24-0.97,1.9-2.16,1.9-3.67c0-0.97-0.5-1.94-1.49-2.7c-1.07-0.75-2.72-1.4-4.95-1.94l-9.9-2.48
	c-2.48-0.65-4.46-1.29-5.86-2.05c-1.41-0.76-3.14-2.16-5.2-4.32c-2.06-2.05-3.14-5.62-3.14-10.47c0-5.72,1.98-10.26,5.86-13.6
	c3.88-3.35,9.08-5.08,15.6-5.08c0.91,0,1.98,0,3.22,0.11c1.24,0.11,2.81,0.33,4.71,0.65l6.11,1.08c0.58,0.11,1.24,0.22,1.9,0.32
	c0.83,0.11,1.65,0.11,2.47,0.11L202.36,127.79"/>
<path class="st2" d="M241.61,162.77l-0.38-0.69l0.1-0.04l-7.55-12.22l2.79-2.27l1.32-1.08c1.98-1.51,2.97-3.02,2.97-4.54
	c0-1.84-0.99-2.7-3.05-2.7l-1.24-0.11V127.9h28.56v12.85h-1.07c-2.89,0-5.53,0.97-7.93,3.02l-4.71,3.78l7.68,12.96
	c1.57,2.7,2.81,4.32,3.8,4.97c0.99,0.65,2.72,0.97,5.12,0.97v12.85h-30.96V167.2h0.83l1.73-0.11c1.65,0,2.56-0.86,2.56-2.48
	C242.18,164.07,242.02,163.42,241.61,162.77 M232.5,107.39v71.9h-27.65v-12.85h2.31c3.05,0,5.12-0.75,6.19-2.16
	c0.99-1.4,1.49-4.21,1.49-8.42v-25.05c0-4.21-0.5-7.13-1.49-8.53c-1.07-1.41-3.14-2.05-6.19-2.05h-2.31v-12.85H232.5z"/>
<path class="st2" d="M86.48,176.08c-0.07-0.46-0.15-0.9-0.24-1.32c-0.14-1.26-0.14-2.72,0.22-4.22c0,0-1.9-0.8-2.3-2.12
	c-0.62-2.09,0.33-4.28,0.33-4.28s0.74-1.58,0.17-3.59c1.96-0.7,2.39,2.04,3.55,3.23c1.25,1.28,3.35,1.01,3.35,1.01
	s-0.16-0.13-0.26-0.29c-0.1-0.16-0.12-0.32-0.12-0.32s2.06,0.69,3.91-1.4c1.05-1.19,1.14-3.35,1.14-3.35
	c-0.6,1.35-1.98,2.15-1.98,2.15c0.4-0.53,0.32-1.11,0.32-1.11s-0.7,1.1-2.13,1.03c-1.87-0.1-2.19-2.65-4.17-3.08
	c-1.84-0.39-3.6,1.24-3.84,1.48c-0.19-0.45-0.44-0.9-0.79-1.37c-1.38-1.85-2.22-2.2-2.54-2.27l-1.75-0.41
	c0.04-0.1,0.07-0.21,0.09-0.33c0.09-0.66-0.31-1.32-0.93-1.62c0.38-1.07,0.3-1.77,0.3-1.77s-1.56-1.57-2.82-1.56
	c0,0-0.3-0.4-0.34-1.54c-0.04-1.14,0.56-3.06,0.2-4.06c-0.14-0.41-0.65-0.57-0.84-0.61c-0.08-0.13-0.36-0.56-0.45-0.68
	c-0.1-0.14-0.18-0.03-0.18-0.03c-0.11-0.12-0.19-0.51-0.15-0.7c0,0,0.31,0.59,0.86,0.34c0.52-0.24,0.88-0.07,0.88-0.07
	s-0.38-0.6-0.98-0.35c-0.28,0.11-0.63-0.03-0.63-0.03c0.11-0.06,0.34-0.38,0.2-0.6c-0.09-0.14-0.19-0.32-0.18-0.44
	c0.01-0.12-0.03-0.3-0.03-0.3s1.26-0.25,1.42-0.36c0,0-0.19-0.87-0.56-1.24c-0.63-0.63-1.89-0.5-1.89-0.5s-0.31-0.42-0.46-0.33
	c-0.15,0.09-0.31,0.23-0.31,0.23s-0.24-0.43-0.58-0.18c-0.34,0.25-0.68,0.65-0.68,0.65l0.81,1.29l-0.07,0.67l0.12,0.21l-0.16,0.56
	l0.21,0.1c0,0-0.04,0.16,0.08,0.51l-0.05,0.19l0.08,0.26l0.49,0.1l0,0.19l-2.59,0.09l-0.13-0.02c0.02-0.48-0.71-0.83-0.71-0.83
	s0.07-0.21,0.08-0.35c0.02-0.25-0.4-0.51-0.55-0.63c-0.35-0.27-0.61-0.55-0.71-0.75c-0.17-0.35-0.2-0.52-0.29-0.91
	c-0.1-0.46-0.73-0.84-0.96-0.89l-2.95-4.87c-0.06-0.67,0.02-2.06,1.56-2.71c2.1-0.89,9.74,4.85,9.65-0.13c-0.02-1.23-1-2.72-1-2.72
	c0.6-2.55,4.14-2.34,8.55,0.43c1.55,0.69,6.04,3.9,7.69,3.67c3.34-0.46,2.18-3.97,2.18-3.97s-4.75-2.58-6.95-4.51
	c0,0,0.18,1.83-1.6,1.84c-5.28,0.04-14.33-14.05-19.44-9.74c-1.07,0.91-0.86,3.01-0.86,3.01c-3.9,1.04-4.03-2.96-9.09-0.88
	l-0.51-0.82c0,0-0.16-0.11-0.35,0.07c-0.19,0.18-0.16,0.44-0.16,0.44l13.09,21.59l-0.03,0.48c-0.03,0.35,0.29,0.73,0.51,0.92
	c0.1,0.09,0.18,0.07,0.27,0.17c0.08,0.22,0.18,1.54,0.44,1.82c0.19,0.2,0.37,0.27,0.51,0.24c0,0,0.36,1.16,0.75,1.58
	c0.25,0.27,0.48,0.16,0.79,0.27l0.1,0.03l1.23,2.03c-0.27,0.25-0.5,0.43-0.87,0.4c-0.33-0.02-0.51,0.1-0.84,0.1
	c-0.14,0-0.29-0.03-0.41-0.01c-0.12-0.43-0.25-0.87-0.47-1.27c-0.43-0.77-1.1-1.32-1.54-1.62c0.55-0.14,1.38,0.23,1.38,0.23
	c-0.61-1.43-1.83-1.84-1.83-1.84c0.24-0.14,0.58-0.16,0.58-0.16s-1.24-1.02-2.18-1.14c-0.96-0.12-1.54,0.16-1.64,0.03
	c-0.17-0.21,0.42-0.66,0.42-0.66s-0.27-0.06-0.52,0.03c-0.21,0.08-0.36,0.25-0.36,0.25c-0.17-0.25,0.48-0.82,0.48-0.82
	s-0.8,0.04-1.21,0.45c-0.24,0.24-0.41,0.84-0.41,0.84s-0.3-1.22-0.4-0.69c-0.08,0.45-0.29,0.71-0.34,0.99
	c-0.05,0.27-0.01,0.48-0.01,0.48l-1.79,1.51l-0.12,0.75l-2.19,2.21c0,0-0.31-0.03-0.37,0c-0.07,0.03-0.49,0.49-0.51,0.57
	c-0.01,0.08-0.02,0.19-0.01,0.29c0.01,0.1,0.27,1.19,0.28,1.24c0.02,0.12,0.26,0.16,0.38,0.16c0.11,0,0.18-0.01,0.18-0.01
	s0.04,0.34,0.08,0.38c0.04,0.03,0.36,0.34,0.52,0.32c0.31-0.05,0.55-0.57,0.88-0.7l0.11,0.15l0.59-0.35l-0.04-0.22
	c0,0,0.47-0.08,0.73,0.12c0.26,0.21,1.03,0.44,1.96,0.08c0.83-0.32,1.31-1.15,1.68-1.12c0.38,0.03,0.64,1.16,0.43,5.2l-0.01,0.17
	c-1.65-0.43-3.97-1.17-4.56-0.9c-0.65,0.3-0.91,0.84-0.9,0.94c0.01,0.1,0.07,0.44-0.1,0.89c-0.17,0.44-1.03,1.97-1.24,2.31
	c-0.21,0.34-0.75,1.03-0.41,1.71c0.24,0.48,0.49,0.71,0.15,1.41c0,0,0.64,2.26,1.15,2.61c0,0,0.96-2.14,0.68-2.67
	c-0.28-0.52-0.75-0.68-0.76-0.91c-0.01-0.44,0.34-0.55,0.34-0.55s-0.36-0.61-0.16-1.12c0.21-0.5,1.45-2.56,1.93-2.51
	c0.91,0.11,3.4,3.1,3.61,3.33c0.07,0.08,0.16,0.19,0.26,0.29c-0.85,0.69-1.67,1.36-1.72,1.39c-0.11,0.08-0.32,0.2-0.39,0.48
	c-0.07,0.28-0.25,0.99-0.25,0.99s0.63,0.6,0.38,4.4c-0.04,0.6,0.85,0.75,1.04,1.05c0.39,0.59,0.39,0.79,1.14,1.03
	c0.75,0.24,1.37,0.16,1.37,0.16s-0.59-2.07-1.16-2.14c-0.24-0.03-0.64,0.33-0.71,0.12c-0.07-0.21-0.11-0.76-0.11-0.76
	s-0.52-0.08-0.58-0.89c-0.06-0.8,0.01-2.55,0.34-2.83c0.33-0.28,1.96-0.44,1.96-0.44s0.34-0.21,0.73-0.52
	c0.95,1.08,2.15,1.79,3.41,2.26c-0.23,0.15-0.47,0.27-0.64,0.32c-0.38,0.12-0.75,0.77-0.59,0.95c0.15,0.18,1.64,0.25,1.97,0.16
	c0.33-0.09,0.67-0.48,0.67-0.48s0.15,0.36,0.23,0.5c0.08,0.15,0.92-0.1,0.92-0.1s0.1-0.26,0.2-0.71c1.03,0.14,2.02,0.17,2.86,0.15
	c-0.07,0.56-0.1,1.03-0.03,1.31c0.18,0.71,1.7,2.32,1.33,4c-0.37,1.68-3.8,4.1-3.83,4.88c-0.03,0.78,0.2,0.86,0.12,1.12
	c-0.07,0.25-0.51,0.83-0.51,0.83s-0.44,0.81-0.16,2.9H29.73l0-13.85l1.82-0.11c2.06,0,3.71-0.21,5.12-0.65
	c1.32-0.32,2.47-1.08,3.47-2.05c0.91-0.97,1.57-2.27,1.82-3.67c0.25-1.4,0.41-4.53,0.41-9.39v-12.52c0-4.86-0.17-7.99-0.41-9.39
	c-0.25-1.41-0.91-2.7-1.9-3.67c-0.99-0.97-2.15-1.73-3.38-2.16c-1.24-0.32-2.97-0.54-5.12-0.54l-1.82-0.11v-13.82h55.14
	c3.63,0,6.19,0.11,7.68,0.32c1.48,0.22,3.14,0.76,5.04,1.62c1.82,0.97,3.71,2.7,6.03,5.29c2.23,2.59,3.3,6.37,3.3,11.33
	c0,3.56-0.74,6.69-2.15,9.39c-1.48,2.81-3.14,4.64-4.95,5.51c-1.82,0.97-3.3,1.62-4.46,1.94c-1.15,0.32-2.64,0.65-4.46,0.97
	c2.39,0,4.21,0.22,5.53,0.76c1.24,0.54,2.89,1.73,4.79,3.56c1.98,1.84,2.97,5.29,2.97,10.36v4.86l0.08,1.73
	c0,2.37,0.74,3.56,2.23,3.56c0.91,0,1.57-0.32,1.98-1.08c0.41-0.76,0.58-1.94,0.58-3.78v-8.1h6.52v9.29c0,5.18-1.32,9.18-3.88,12.09
	c-2.56,2.91-6.19,4.32-10.9,4.32C97.01,181.15,87.33,181.64,86.48,176.08 M69.69,149.78c0.15,0.02,0.3-0.02,0.44-0.14
	c0.1-0.08,0.1-0.24,0.21-0.31c0.23-0.15,0.43,0.01,0.69,0.08c0.35,0.08,0.59,0.39,0.9,0.18c0.12-0.08,0.19-0.22,0.26-0.34l0.09,0.14
	c0.36,1.46,0.87,2.8,0.87,2.8l-0.71,0.83c-0.09-0.18-0.18-0.48-0.18-0.93c0-0.46-0.97-0.3-0.97-0.3s-0.12,0.42-0.01,0.51
	c0.12,0.09,0.5,0.22,0.52,0.49c0,0.13-0.15,0.22-0.32,0.28c-0.32-0.5-0.68-1.16-1.03-1.81c0.33-0.03,0.58-0.16,0.63-0.32
	c-0.59-0.17-0.97-0.47-1.23-0.84L69.69,149.78z M71.94,147.36c-0.12-0.09-0.2-0.03-0.27,0.05l-0.85-1.41
	c0.18,0.05,0.38,0.09,0.61,0.12c0.19,0.03,0.37,0.1,0.53,0.13c-0.01,0.31-0.02,0.58-0.02,0.77
	C71.93,147.14,71.93,147.25,71.94,147.36z"/>
</svg>
